<?xml version="1.0" encoding="utf-8"?>
<!-- Generator: Adobe Illustrator 22.0.1, SVG Export Plug-In . SVG Version: 6.00 Build 0)  -->
<svg version="1.1" id="Layer_1" xmlns="http://www.w3.org/2000/svg" xmlns:xlink="http://www.w3.org/1999/xlink" x="0px" y="0px"
	 viewBox="0 0 100 100" style="enable-background:new 0 0 100 100;" xml:space="preserve">
<style type="text/css">
	.st0{fill:#FFFFFF;}
</style>
<path class="st0" d="M84.1,41.6c1.2-4,3.6-14.5-0.9-19.9c-3.8-4.6-14.7-9.9-29.6-10.7c-10.8-0.6-24.1,2.9-28.3,6.3
	c-1.5,1.2-2.5,2.7-3,3.7c-1.5,0.3-4.1,1.2-5.9,3.4c-1.7,2.1-2.5,4.7-2.2,7.9c0.4,4.6,0.8,9.4,1,11.7c-1.5,1-3.2,2.8-3.2,5.8
	c0,2.6,1.3,8.7,5.3,10.9c0.8,0.4,1.8,0.8,3,0.8c0.4,0,0.9,0,1.3-0.1c0.2,15,12.5,27.2,27.6,27.2c15.2,0,27.6-12.4,27.6-27.6v-1.7
	c2-0.2,4.9-0.8,6.6-3.1c1.9-2.6,3.1-9.2,1.8-12.8C84.9,42.7,84.5,42.1,84.1,41.6z M72.8,61.1c0,13-10.6,23.6-23.6,23.6
	S25.7,74.1,25.7,61.1v-2.5c0.2-1.1,1.3-8.4,2.1-12.2c0.5-2.1,1.6-3.8,2.7-4.3c0.3-0.1,1.1-0.5,2.6,0.4c0.8,0.5,1.8,0.3,2.5-0.4
	c0.4-0.4,4.2-4.2,8.6-0.8c5.9,4.6,16.7,8.5,28.7,5.5v10.5V61.1z M79.9,43.4c0.3,0.5,0.7,0.8,1.2,1c1.1,0.9,0.6,7.4-1,9.6
	c-0.6,0.9-2.1,1.3-3.3,1.4V44.5v-0.2c0-0.6-0.3-1.2-0.8-1.6s-1.2-0.5-1.8-0.3c-11.5,3.8-22,0.2-27.6-4.1c-5.1-4-10.1-2-12.9,0.2
	c-2-0.8-3.7-0.4-4.8,0.1c-2.4,1-4.2,3.7-5,7c-0.8,3.4-1.7,9.3-2.1,11.7c-1.5,0.7-2.3,0.2-2.6,0.1c-2-1.1-3.3-5.2-3.3-7.4
	c0-1.9,1.7-2.6,1.9-2.7c0.9-0.3,1.4-1.1,1.4-2.1c0,0-0.5-6.8-1.1-13.1c-0.6-6.3,4.6-7.1,5.7-7.2c0.7-0.1,1.4-0.5,1.7-1.2
	c0,0,0.8-1.8,2.4-3.1c2.8-2.2,14.5-6,25.5-5.4c14.6,0.8,24,5.9,26.7,9.2c3.3,4,0.9,14-0.3,17.5C79.7,42.3,79.7,42.9,79.9,43.4z"/>
</svg>
