<?xml version="1.0" encoding="utf-8"?>
<!-- Generator: Adobe Illustrator 22.0.1, SVG Export Plug-In . SVG Version: 6.00 Build 0)  -->
<svg version="1.1" id="Layer_1" xmlns="http://www.w3.org/2000/svg" xmlns:xlink="http://www.w3.org/1999/xlink" x="0px" y="0px"
	 viewBox="0 0 100 100" style="enable-background:new 0 0 100 100;" xml:space="preserve">
<style type="text/css">
	.st0{fill:#FFFFFF;}
</style>
<g>
	<path class="st0" d="M49.6,25C26,25,6.9,44.1,6.9,67.7c0,1.1,0.9,2,2,2s2-0.9,2-2C10.9,46.3,28.3,29,49.6,29s38.7,17.3,38.7,38.7
		c0,1.1,0.9,2,2,2s2-0.9,2-2C92.2,44.1,73.1,25,49.6,25z"/>
	<path class="st0" d="M51.6,43.3v-7.7c0-1.1-0.9-2-2-2s-2,0.9-2,2v7.7c0,1.1,0.9,2,2,2S51.6,44.4,51.6,43.3z"/>
	<path class="st0" d="M25,67.7h-7.7c-1.1,0-2,0.9-2,2s0.9,2,2,2H25c1.1,0,2-0.9,2-2S26.1,67.7,25,67.7z"/>
	<path class="st0" d="M34,39.7c-0.5-1-1.8-1.3-2.7-0.8s-1.3,1.8-0.8,2.7l3.7,6.7c0.4,0.7,1,1,1.7,1c0.3,0,0.7-0.1,1-0.3
		c1-0.5,1.3-1.8,0.8-2.7L34,39.7z"/>
	<path class="st0" d="M28.3,55.7l-6.6-3.9c-1-0.6-2.2-0.2-2.7,0.7c-0.6,1-0.2,2.2,0.7,2.7l6.6,3.9c0.3,0.2,0.7,0.3,1,0.3
		c0.7,0,1.4-0.4,1.7-1C29.6,57.4,29.3,56.2,28.3,55.7z"/>
	<path class="st0" d="M81.8,67.7h-7.7c-1.1,0-2,0.9-2,2s0.9,2,2,2h7.7c1.1,0,2-0.9,2-2S82.9,67.7,81.8,67.7z"/>
	<path class="st0" d="M67.9,38.9c-1-0.5-2.2-0.2-2.7,0.8l-0.9,1.6c-0.7,0.1-1.4,0.4-1.9,1.1l-14.9,21c0,0.1-0.1,0.1-0.1,0.2
		c-0.5,0.5-1,1-1.3,1.6c-1.6,3-0.5,6.8,2.5,8.5c0.9,0.5,2,0.8,3,0.8c2.2,0,4.4-1.2,5.5-3.3c0.4-0.7,0.6-1.3,0.7-2
		c0-0.1,0.1-0.1,0.1-0.2l9-24.2c0,0,0,0,0,0l1.7-3.1C69.2,40.6,68.8,39.4,67.9,38.9z M53.6,69.3c-0.6,1.1-2,1.5-3.1,0.9
		c-1.1-0.6-1.5-2-0.9-3.1c0.4-0.7,1.2-1.2,2-1.2c0.4,0,0.7,0.1,1.1,0.3C53.8,66.8,54.2,68.2,53.6,69.3z M55.7,63.4
		c-0.3-0.3-0.7-0.5-1.1-0.7c-0.4-0.2-0.9-0.4-1.3-0.5l6-8.5L55.7,63.4z"/>
	<path class="st0" d="M79.5,55.2c1-0.6,1.3-1.8,0.7-2.7c-0.6-1-1.8-1.3-2.7-0.7l-6.6,3.9c-1,0.6-1.3,1.8-0.7,2.7c0.4,0.6,1,1,1.7,1
		c0.3,0,0.7-0.1,1-0.3L79.5,55.2z"/>
</g>
</svg>
