<?xml version="1.0" encoding="utf-8"?>
<!-- Generator: Adobe Illustrator 23.0.1, SVG Export Plug-In . SVG Version: 6.00 Build 0)  -->
<svg version="1.1" id="Layer_1" xmlns="http://www.w3.org/2000/svg" xmlns:xlink="http://www.w3.org/1999/xlink" x="0px" y="0px"
	 viewBox="0 0 100 100" style="enable-background:new 0 0 100 100;" xml:space="preserve">
<style type="text/css">
	.st0{fill:#FFFFFF;}
</style>
<path class="st0" d="M58.7,15.5H31.5c-5.4,0-9.9,4.4-9.9,9.6v49.3c0,5.5,4.4,9.9,9.9,9.9h37.1c5.5,0,9.9-4.4,9.9-9.9V35.7L58.7,15.5
	z M59.9,22.4l11.9,12.2h-6c-3.3,0-5.9-2.7-5.9-5.9V22.4z M68.6,80.3H31.5c-3.3,0-5.9-2.7-5.9-5.9V25c0-3,2.7-5.6,5.9-5.6h24.4v9.2
	c0,5.5,4.4,9.9,9.9,9.9h8.7v35.8C74.5,77.6,71.9,80.3,68.6,80.3z"/>
<g>
	<path class="st0" d="M39.9,37.1c-2.9-0.5-4.7-1.8-4.7-4c0-2.7,2.2-4.1,4.7-4.1v-0.5c0-0.3,0.3-0.7,0.6-0.7c0.3,0,0.6,0.3,0.6,0.7
		V29c1.5,0,4.7,1,4.7,2.9c0,0.8-0.6,1.2-1.2,1.2c-1.3,0-1.3-2.1-3.5-2.2v3.7c2.6,0.6,4.9,1.3,4.9,4.4c0,2.6-2,4-4.9,4.2v1.2
		c0,0.3-0.3,0.7-0.6,0.7c-0.3,0-0.6-0.3-0.6-0.7v-1.2c-3.3-0.1-5-2.1-5-3.6c0-0.8,0.5-1.2,1.2-1.2c2.2,0,0.5,2.7,3.8,2.9V37.1z
		 M39.9,31c-1.3,0-2.2,0.8-2.2,1.7c0,1,0.7,1.6,2.2,1.9V31z M41.1,41.2c1.2-0.1,2.4-0.6,2.4-1.9c0-1.3-1.4-1.7-2.4-2V41.2z"/>
</g>
<path class="st0" d="M64.2,57.6H35.9c-1.1,0-2-0.9-2-2s0.9-2,2-2h28.3c1.1,0,2,0.9,2,2S65.3,57.6,64.2,57.6z"/>
<path class="st0" d="M64.2,68.4H35.9c-1.1,0-2-0.9-2-2s0.9-2,2-2h28.3c1.1,0,2,0.9,2,2S65.3,68.4,64.2,68.4z"/>
</svg>
