<?xml version="1.0" encoding="utf-8"?>
<!-- Generator: Adobe Illustrator 22.0.1, SVG Export Plug-In . SVG Version: 6.00 Build 0)  -->
<svg version="1.1" id="Layer_1" xmlns="http://www.w3.org/2000/svg" xmlns:xlink="http://www.w3.org/1999/xlink" x="0px" y="0px"
	 viewBox="0 0 100 100" style="enable-background:new 0 0 100 100;" xml:space="preserve">
<style type="text/css">
	.st0{fill:#FFFFFF;}
</style>
<g>
	<path class="st0" d="M67.7,20.5v-1.9c0-3.1-2.5-5.6-5.6-5.6H37.3c-3.1,0-5.6,2.5-5.6,5.6v1.9c-6.9,0.8-12.3,6.7-12.3,13.9v39.8
		c0,7.7,6.3,14,14,14H66c7.7,0,14-6.3,14-14V34.4C80,27.3,74.6,21.4,67.7,20.5z M35.7,18.6c0-0.9,0.7-1.6,1.6-1.6h24.8
		c0.9,0,1.6,0.7,1.6,1.6v9.3c0,0.9-0.7,1.6-1.6,1.6H37.3c-0.9,0-1.6-0.7-1.6-1.6V18.6z M76,74.2c0,5.5-4.5,10-10,10H33.3
		c-5.5,0-10-4.5-10-10V34.4c0-4.9,3.6-9.1,8.3-9.8v3.3c0,3.1,2.5,5.6,5.6,5.6h24.8c3.1,0,5.6-2.5,5.6-5.6v-3.3
		c4.7,0.8,8.3,4.9,8.3,9.8V74.2z"/>
	<path class="st0" d="M65.4,41.8H48c-1.1,0-2,0.9-2,2s0.9,2,2,2h17.4c1.1,0,2-0.9,2-2S66.5,41.8,65.4,41.8z"/>
	<path class="st0" d="M65.4,69.6H48c-1.1,0-2,0.9-2,2s0.9,2,2,2h17.4c1.1,0,2-0.9,2-2S66.5,69.6,65.4,69.6z"/>
	<path class="st0" d="M65.4,55.7H48c-1.1,0-2,0.9-2,2s0.9,2,2,2h17.4c1.1,0,2-0.9,2-2S66.5,55.7,65.4,55.7z"/>
	<path class="st0" d="M39.6,38.8h-6c-1.1,0-2,0.9-2,2v6c0,1.1,0.9,2,2,2h6c1.1,0,2-0.9,2-2v-6C41.6,39.7,40.7,38.8,39.6,38.8z
		 M37.6,44.8h-2v-2h2V44.8z"/>
	<path class="st0" d="M39.6,52.7h-6c-1.1,0-2,0.9-2,2v6c0,1.1,0.9,2,2,2h6c1.1,0,2-0.9,2-2v-6C41.6,53.6,40.7,52.7,39.6,52.7z
		 M37.6,58.7h-2v-2h2V58.7z"/>
	<path class="st0" d="M39.6,66.6h-6c-1.1,0-2,0.9-2,2v6c0,1.1,0.9,2,2,2h6c1.1,0,2-0.9,2-2v-6C41.6,67.5,40.7,66.6,39.6,66.6z
		 M37.6,72.6h-2v-2h2V72.6z"/>
</g>
</svg>
