<svg id="Layer_1" data-name="Layer 1" xmlns="http://www.w3.org/2000/svg" viewBox="0 0 64.65 68.79"><title>ledger</title><path d="M72.85,16.41H35.74A9.88,9.88,0,0,0,25.82,26v5a2,2,0,1,0,4,0V26a5.83,5.83,0,0,1,5.92-5.56h5.79V81.2H35.74a5.92,5.92,0,0,1-5.92-5.91V73.41c4.2-.72,7.24-3.43,7.24-6.75a2,2,0,0,0-4,0c0,1.39-2.34,2.94-5.47,2.94s-5.47-1.55-5.47-2.94a2,2,0,0,1,.64-1.3,2,2,0,0,0-2.83-2.83,5.79,5.79,0,0,0-1.81,4.13c0,3.45,3.27,6.23,7.7,6.82v1.81a9.93,9.93,0,0,0,9.92,9.91H72.85a9.92,9.92,0,0,0,9.91-9.91v-49A9.92,9.92,0,0,0,72.85,16.41Zm5.91,58.88a5.92,5.92,0,0,1-5.91,5.91H45.53V20.41H72.85a5.92,5.92,0,0,1,5.91,5.91Z" transform="translate(-18.12 -16.41)" style="fill:#fff"/><path d="M25.82,39.35v7.94a2,2,0,0,0,4,0v-8c4.2-.72,7.24-3.43,7.24-6.75a2,2,0,0,0-4,0c0,1.39-2.34,2.94-5.47,2.94s-5.47-1.55-5.47-2.94a2,2,0,0,1,.64-1.3,2,2,0,0,0-2.83-2.83,5.79,5.79,0,0,0-1.81,4.13C18.12,36,21.39,38.76,25.82,39.35Z" transform="translate(-18.12 -16.41)" style="fill:#fff"/><path d="M25.82,56.41v8.12a2,2,0,0,0,4,0V56.34c4.2-.72,7.24-3.42,7.24-6.75a2,2,0,0,0-4,0c0,1.39-2.34,2.95-5.47,2.95S22.12,51,22.12,49.59a1.87,1.87,0,0,1,.64-1.3,2,2,0,1,0-2.83-2.82,5.76,5.76,0,0,0-1.81,4.12C18.12,53,21.39,55.82,25.82,56.41Z" transform="translate(-18.12 -16.41)" style="fill:#fff"/><path d="M62.1,48.31V42.69c3.29.06,3.26,3.22,5.18,3.22a1.78,1.78,0,0,0,1.87-1.83c0-2.9-4.74-4.35-7.05-4.41V39a.89.89,0,1,0-1.77,0v.68c-3.7.12-7,2.19-7,6.21,0,3.29,2.67,5.21,7,6v6.19c-4.92-.21-2.34-4.29-5.66-4.29a1.7,1.7,0,0,0-1.83,1.86c0,2.34,2.48,5.33,7.49,5.45v1.84a.89.89,0,1,0,1.77,0V61.1c4.41-.27,7.37-2.28,7.37-6.25C69.47,50.3,66,49.14,62.1,48.31ZM60.33,48C58.11,47.54,57,46.68,57,45.2c0-1.27,1.3-2.45,3.32-2.51ZM62.1,58.08V52.22c1.6.35,3.64,1,3.64,3S63.88,58,62.1,58.08Z" transform="translate(-18.12 -16.41)" style="fill:#fff"/></svg>