<?xml version="1.0" encoding="utf-8"?>
<!-- Generator: Adobe Illustrator 22.0.1, SVG Export Plug-In . SVG Version: 6.00 Build 0)  -->
<svg version="1.1" id="Layer_1" xmlns="http://www.w3.org/2000/svg" xmlns:xlink="http://www.w3.org/1999/xlink" x="0px" y="0px"
	 viewBox="0 0 50 50" style="enable-background:new 0 0 50 50;" xml:space="preserve">
<style type="text/css">
	.st0{fill:#091C7C;}
</style>
<path class="st0" d="M44.7,36.3c-4.5-1.2-6.2-7.7-7.6-18.5c-1.4-10.8-11.8-11-11.9-11s-10.5,0.1-11.9,11C12,28.6,10.3,35.1,5.7,36.3
	c-0.5,0.1-0.8,0.6-0.7,1.1c0.1,0.5,0.5,0.9,1,0.9h13.8c0.5,2.6,2.7,4.5,5.4,4.5s4.9-1.9,5.4-4.5h13.8c0.5,0,0.9-0.4,1-0.9
	C45.5,36.9,45.2,36.4,44.7,36.3z M25.2,40.8c-1.6,0-2.9-1.1-3.3-2.5h6.7C28.1,39.7,26.8,40.8,25.2,40.8z M9.7,36.3
	c3.5-3.4,4.7-10.3,5.7-18.2c1.2-9.1,9.5-9.2,9.9-9.2c0.4,0,8.7,0.1,9.9,9.2c1,7.9,2.2,14.8,5.7,18.2H9.7z"/>
</svg>
