<svg id="Layer_1" data-name="Layer 1" xmlns="http://www.w3.org/2000/svg" viewBox="0 0 68.33 74.75"><defs><style>.cls-1{fill:#fff;}</style></defs><title>payments</title><path class="cls-1" d="M86.29,85.57c-.81-3.36-8-33-11.79-39.08C71.11,41.05,61.18,28.23,59,25.38V15.29a2,2,0,0,0-2-2H20a2,2,0,0,0-2,2V79.8a2,2,0,0,0,2,2H53.39c2.4,3.13,4.5,5.41,4.68,5.6a2,2,0,0,0,1.47.64H84.35a2,2,0,0,0,1.94-2.47ZM22,77.8V17.29H55V46.6c-.25-.35-.49-.66-.72-.94a6.38,6.38,0,0,0-4.4-2.46c-3.24-.34-6.34,1.68-7.44,2.5a6.9,6.9,0,0,0-.92-3.25,6,6,0,0,0-2.61-2.38V38.13a1.22,1.22,0,0,0-.33-.86,1.08,1.08,0,0,0-.83-.36,1.12,1.12,0,0,0-.87.36,1.22,1.22,0,0,0-.33.86v1.29c-.48,0-.85-.06-1.1-.06s-.6,0-1.08.06V38.13a1.22,1.22,0,0,0-.33-.86,1.22,1.22,0,0,0-1.73,0,1.22,1.22,0,0,0-.33.86v1.94a5.88,5.88,0,0,0-2.61,2.35,7.16,7.16,0,0,0-.94,3.78v3.49a1.67,1.67,0,0,0,1.82,1.82H32v1.67a1.24,1.24,0,0,0,.33.87,1.22,1.22,0,0,0,1.73,0,1.24,1.24,0,0,0,.33-.87V51.51h2.18v1.67a1.24,1.24,0,0,0,.33.87,1.12,1.12,0,0,0,.87.36,1.08,1.08,0,0,0,.83-.36,1.24,1.24,0,0,0,.33-.87V51.51h3.21c1.1,5,3.13,14.1,4.41,18.35a32.38,32.38,0,0,0,4,7.94Zm9.94-30h-.56V46.32A3.66,3.66,0,0,1,32,44.19ZM34.12,43a8.71,8.71,0,0,1,1.33-.11A8.09,8.09,0,0,1,36.6,43v4.85H34.12Zm4.65,1a3.45,3.45,0,0,1,.71,2.29v1.52h-.71ZM60.43,84c-2-2.22-8.42-9.77-10.1-15.34-1.44-4.78-4-16.4-4.81-20.28a7,7,0,0,1,3.91-1.24,2.4,2.4,0,0,1,1.7,1c3.28,4.1,11,17.89,11.11,18a2,2,0,0,0,3.49-2c-.21-.38-3.53-6.29-6.79-11.57a1.27,1.27,0,0,0,0-.28V31.93C62.83,37,68.74,44.8,71.1,48.6,73.77,52.91,79.25,73.74,81.8,84Z" transform="translate(-18.01 -13.29)"/></svg>