<?xml version="1.0" encoding="utf-8"?>
<!-- Generator: Adobe Illustrator 22.0.1, SVG Export Plug-In . SVG Version: 6.00 Build 0)  -->
<svg version="1.1" id="Layer_1" xmlns="http://www.w3.org/2000/svg" xmlns:xlink="http://www.w3.org/1999/xlink" x="0px" y="0px"
	 viewBox="0 0 100 100" style="enable-background:new 0 0 100 100;" xml:space="preserve">
<style type="text/css">
	.st0{fill:#FFFFFF;}
</style>
<g>
	<path class="st0" d="M72.2,12.4h-46c-3.6,0-6.6,3-6.6,6.6v61.6c0,3.6,3,6.6,6.6,6.6h46c3.6,0,6.6-3,6.6-6.6V18.9
		C78.8,15.3,75.9,12.4,72.2,12.4z M74.8,80.6c0,1.4-1.2,2.6-2.6,2.6h-46c-1.4,0-2.6-1.2-2.6-2.6V18.9c0-1.4,1.2-2.6,2.6-2.6h46
		c1.4,0,2.6,1.2,2.6,2.6V80.6z"/>
	<path class="st0" d="M55.9,23.7c-6.7,0-12.1,5.4-12.1,12.1s5.4,12.1,12.1,12.1c6.7,0,12.1-5.4,12.1-12.1S62.6,23.7,55.9,23.7z
		 M48.4,32.8c0-0.1,0-0.1,0.1-0.2c0.1-0.3,0.3-0.6,0.4-0.9c0-0.1,0.1-0.1,0.1-0.2c0.1-0.2,0.3-0.4,0.4-0.6c0.1-0.1,0.1-0.1,0.2-0.2
		c0.2-0.2,0.4-0.5,0.6-0.7c0,0,0,0,0,0c0.2-0.2,0.5-0.4,0.7-0.6c0.1-0.1,0.1-0.1,0.2-0.2c0.2-0.1,0.4-0.3,0.6-0.4
		c0.1,0,0.1-0.1,0.2-0.1c0.3-0.2,0.6-0.3,0.9-0.4c0.1,0,0.1,0,0.2-0.1c0.2-0.1,0.5-0.2,0.8-0.3c0,0,0.1,0,0.1,0v5.8h-5.8
		c0,0,0-0.1,0-0.1C48.2,33.3,48.3,33.1,48.4,32.8z M55.9,43.8c-3.8,0-6.9-2.6-7.8-6.1h7.8c1.1,0,2-0.9,2-2v-7.8
		c3.5,0.9,6.1,4.1,6.1,7.8C64,40.2,60.4,43.8,55.9,43.8z"/>
	<path class="st0" d="M33.2,65c-1.1,0-2,0.9-2,2v6.2c0,1.1,0.9,2,2,2s2-0.9,2-2V67C35.2,65.9,34.4,65,33.2,65z"/>
	<path class="st0" d="M41.2,61.4c-1.1,0-2,0.9-2,2v9.8c0,1.1,0.9,2,2,2s2-0.9,2-2v-9.8C43.2,62.3,42.4,61.4,41.2,61.4z"/>
	<path class="st0" d="M49.2,58.2c-1.1,0-2,0.9-2,2v13c0,1.1,0.9,2,2,2s2-0.9,2-2v-13C51.2,59.1,50.4,58.2,49.2,58.2z"/>
	<path class="st0" d="M57.2,55.2c-1.1,0-2,0.9-2,2v16c0,1.1,0.9,2,2,2s2-0.9,2-2v-16C59.2,56.1,58.4,55.2,57.2,55.2z"/>
	<path class="st0" d="M65.2,53.7c-1.1,0-2,0.9-2,2v17.5c0,1.1,0.9,2,2,2s2-0.9,2-2V55.7C67.2,54.6,66.4,53.7,65.2,53.7z"/>
</g>
</svg>
