<?xml version="1.0" encoding="utf-8"?>
<!-- Generator: Adobe Illustrator 22.0.1, SVG Export Plug-In . SVG Version: 6.00 Build 0)  -->
<svg version="1.1" id="Layer_1" xmlns="http://www.w3.org/2000/svg" xmlns:xlink="http://www.w3.org/1999/xlink" x="0px" y="0px"
	 viewBox="0 0 100 100" style="enable-background:new 0 0 100 100;" xml:space="preserve">
<style type="text/css">
	.st0{fill:#FFFFFF;}
</style>
<g>
	<path class="st0" d="M49.3,35.1C40.8,35.1,34,42,34,50.5c0,8.5,6.9,15.4,15.4,15.4c8.5,0,15.4-6.9,15.4-15.4
		C64.7,42,57.8,35.1,49.3,35.1z M49.3,61.9c-6.3,0-11.4-5.1-11.4-11.4c0-6.3,5.1-11.4,11.4-11.4s11.4,5.1,11.4,11.4
		C60.7,56.8,55.6,61.9,49.3,61.9z"/>
	<path class="st0" d="M82.1,43.1l-2.2-0.9c-0.2-0.1-0.3-0.3-0.4-0.5c0,0,0,0,0,0c-0.6-2.2-1.5-4.3-2.6-6.3c-0.1-0.2-0.1-0.5-0.1-0.7
		l0.9-2.2c0.7-1.8,0.3-3.8-1-5.2l-4.2-4.2c-1.4-1.4-3.4-1.8-5.2-1l-2.2,0.9c-0.2,0.1-0.4,0.1-0.7-0.1c-2.1-1.2-4.3-2.1-6.6-2.7
		c-0.2-0.1-0.4-0.2-0.5-0.4l-0.7-1.6c-0.7-1.8-2.4-2.9-4.4-2.9h-6c-1.9,0-3.6,1.2-4.4,2.9l-0.7,1.6c-0.1,0.2-0.3,0.3-0.5,0.4
		c-2.4,0.7-4.7,1.6-6.8,2.8c-0.2,0.1-0.5,0.1-0.7,0.1l-1.6-0.7c-1.8-0.7-3.8-0.3-5.2,1l-4.2,4.2c-1.4,1.4-1.8,3.4-1,5.2l0.7,1.6
		c0.1,0.2,0.1,0.4-0.1,0.7c-1.2,2.1-2.1,4.3-2.8,6.6c-0.1,0.2-0.2,0.4-0.4,0.5l-2.1,0.9c-1.8,0.7-2.9,2.4-2.9,4.4l0,6
		c0,1.9,1.2,3.6,2.9,4.4l2.1,0.9c0.2,0.1,0.3,0.3,0.4,0.5c0.6,2.2,1.5,4.4,2.7,6.4c0.1,0.2,0.1,0.5,0.1,0.7L21,68.4
		c-0.7,1.8-0.3,3.8,1,5.2l4.2,4.2c1.4,1.4,3.4,1.8,5.2,1l2.1-0.9c0.2-0.1,0.4-0.1,0.7,0.1c2.1,1.1,4.3,2.1,6.6,2.7
		c0.2,0.1,0.4,0.2,0.5,0.4l0.7,1.6c0.7,1.8,2.4,2.9,4.4,2.9h6c1.9,0,3.6-1.2,4.4-2.9l0.7-1.6c0.1-0.2,0.3-0.3,0.5-0.4
		c2.4-0.7,4.6-1.6,6.8-2.8c0.2-0.1,0.5-0.1,0.7-0.1l1.6,0.7c1.8,0.7,3.8,0.3,5.2-1l4.2-4.2c1.4-1.4,1.8-3.4,1-5.2l-0.7-1.6
		c-0.1-0.2-0.1-0.4,0.1-0.7c1.2-2.1,2.1-4.3,2.7-6.6c0.1-0.2,0.2-0.4,0.4-0.5l2.2-0.9c1.8-0.7,2.9-2.4,2.9-4.4l0-6
		C85,45.6,83.9,43.9,82.1,43.1z M81,53.5c0,0.3-0.2,0.6-0.4,0.7l-2.2,0.9c-1.3,0.5-2.3,1.7-2.7,3.1c-0.6,2-1.4,3.9-2.4,5.7
		c-0.7,1.3-0.8,2.8-0.3,4.2l0.7,1.6c0.1,0.3,0.1,0.6-0.2,0.8l-4.2,4.2c-0.2,0.2-0.5,0.3-0.8,0.2l-1.6-0.7c-1.3-0.6-2.9-0.5-4.2,0.3
		c-1.9,1-3.9,1.9-5.9,2.4c-1.4,0.4-2.6,1.4-3.1,2.8L53,81.2c-0.1,0.3-0.4,0.4-0.7,0.4h-6c-0.3,0-0.6-0.2-0.7-0.4L45,79.6
		c-0.5-1.3-1.7-2.3-3.1-2.8c-2-0.6-3.9-1.4-5.7-2.4c-0.7-0.4-1.5-0.6-2.3-0.6c-0.6,0-1.2,0.1-1.8,0.4l-2.1,0.9
		c-0.3,0.1-0.6,0.1-0.8-0.2l-4.2-4.2c-0.2-0.2-0.3-0.5-0.2-0.8l0.9-2.1c0.6-1.3,0.5-2.8-0.3-4.1c-1-1.8-1.8-3.7-2.3-5.6
		c-0.4-1.4-1.4-2.6-2.7-3.1l-2.1-0.9c-0.3-0.1-0.4-0.4-0.4-0.7l0-6c0-0.3,0.2-0.6,0.4-0.7l2.1-0.9c1.3-0.5,2.3-1.7,2.7-3.1
		c0.6-2,1.4-3.9,2.4-5.7c0.7-1.3,0.8-2.8,0.3-4.2l-0.7-1.6c-0.1-0.3-0.1-0.6,0.2-0.8l4.2-4.2c0.2-0.2,0.5-0.3,0.8-0.2l1.6,0.7
		c1.3,0.6,2.9,0.5,4.2-0.3c1.9-1.1,3.9-1.9,5.9-2.5c1.4-0.4,2.6-1.4,3.1-2.8l0.7-1.6c0.1-0.3,0.4-0.4,0.7-0.4h6
		c0.3,0,0.6,0.2,0.7,0.4l0.7,1.6c0.6,1.3,1.7,2.3,3.1,2.8c2,0.6,3.9,1.4,5.8,2.4c1.3,0.7,2.8,0.8,4.1,0.2l2.2-0.9
		c0.3-0.1,0.6-0.1,0.8,0.2l4.2,4.2c0.2,0.2,0.3,0.5,0.2,0.8l-0.9,2.2c-0.6,1.3-0.5,2.8,0.2,4.1c1,1.7,1.7,3.6,2.3,5.5
		c0.4,1.4,1.4,2.5,2.7,3.1l2.2,0.9c0.3,0.1,0.4,0.4,0.4,0.7L81,53.5z"/>
</g>
</svg>
