<?xml version="1.0" encoding="utf-8"?>
<!-- Generator: Adobe Illustrator 22.0.1, SVG Export Plug-In . SVG Version: 6.00 Build 0)  -->
<svg version="1.1" id="Layer_1" xmlns="http://www.w3.org/2000/svg" xmlns:xlink="http://www.w3.org/1999/xlink" x="0px" y="0px"
	 viewBox="0 0 50 50" style="enable-background:new 0 0 50 50;" xml:space="preserve">
<style type="text/css">
	.st0{fill:#091C7C;}
</style>
<g>
	<path class="st0" d="M23.8,37.8h-7.5c-4.2,0-7.7-3.4-7.7-7.7V19.5c0-4.2,3.4-7.7,7.7-7.7h7.5c0.6,0,1-0.4,1-1s-0.4-1-1-1h-7.5
		c-5.3,0-9.7,4.3-9.7,9.7v10.7c0,5.3,4.3,9.7,9.7,9.7h7.5c0.6,0,1-0.4,1-1S24.3,37.8,23.8,37.8z"/>
	<path class="st0" d="M43.4,25.2c0.1-0.2,0.1-0.5,0-0.8c0-0.1-0.1-0.1-0.1-0.2c0-0.1-0.1-0.1-0.1-0.2L30,10.1c-0.4-0.4-1-0.4-1.4,0
		c-0.4,0.4-0.4,1,0,1.4l11.6,12.3H17.8c-0.6,0-1,0.4-1,1s0.4,1,1,1h22.4L28.6,38.1c-0.4,0.4-0.4,1,0,1.4c0.2,0.2,0.4,0.3,0.7,0.3
		c0.3,0,0.5-0.1,0.7-0.3l13.2-14c0,0,0.1-0.1,0.1-0.2C43.4,25.3,43.4,25.3,43.4,25.2z"/>
</g>
</svg>
