<?xml version="1.0" encoding="utf-8"?>
<!-- Generator: Adobe Illustrator 22.0.1, SVG Export Plug-In . SVG Version: 6.00 Build 0)  -->
<svg version="1.1" id="Layer_1" xmlns="http://www.w3.org/2000/svg" xmlns:xlink="http://www.w3.org/1999/xlink" x="0px" y="0px"
	 viewBox="0 0 100 100" style="enable-background:new 0 0 100 100;" xml:space="preserve">
<style type="text/css">
	.st0{fill:#FFFFFF;}
</style>
<g>
	<path class="st0" d="M69.7,16.2H30c-3.6,0-6.6,3-6.6,6.6v53.8c0,3.6,3,6.6,6.6,6.6h39.6c3.6,0,6.6-3,6.6-6.6V22.8
		C76.2,19.2,73.3,16.2,69.7,16.2z M72.2,76.6c0,1.4-1.2,2.6-2.6,2.6H30c-1.4,0-2.6-1.2-2.6-2.6V22.8c0-1.4,1.2-2.6,2.6-2.6h39.6
		c1.4,0,2.6,1.2,2.6,2.6V76.6z"/>
	<path class="st0" d="M39.6,57.2h20.6c1.1,0,2-0.9,2-2v-23c0-1.1-0.9-2-2-2H39.6c-1.1,0-2,0.9-2,2v23C37.6,56.3,38.5,57.2,39.6,57.2
		z M47.8,42.1c0-1.1,0.9-2,2-2s2,0.9,2,2s-0.9,2-2,2S47.8,43.2,47.8,42.1z M49.8,48.1c3.2,0,5.9,2.2,6.8,5.1H43
		C43.9,50.3,46.6,48.1,49.8,48.1z M58.1,34.3v13.6c-0.9-1-2-1.9-3.2-2.5c0.6-0.9,1-2.1,1-3.3c0-3.3-2.7-6-6-6s-6,2.7-6,6
		c0,1.2,0.4,2.3,1,3.3c-1.2,0.6-2.3,1.5-3.2,2.5V34.3H58.1z"/>
	<path class="st0" d="M65.1,61.7H34.6c-1.1,0-2,0.9-2,2s0.9,2,2,2h30.5c1.1,0,2-0.9,2-2S66.2,61.7,65.1,61.7z"/>
	<path class="st0" d="M58.4,69.2H41.3c-1.1,0-2,0.9-2,2s0.9,2,2,2h17.1c1.1,0,2-0.9,2-2S59.5,69.2,58.4,69.2z"/>
</g>
</svg>
